<?xml version="1.0" encoding="utf-8"?>
<!-- Generator: Adobe Illustrator 23.0.1, SVG Export Plug-In . SVG Version: 6.00 Build 0)  -->
<svg version="1.1" id="Layer_1" xmlns="http://www.w3.org/2000/svg" xmlns:xlink="http://www.w3.org/1999/xlink" x="0px" y="0px"
	 viewBox="0 0 406.3 397.9" style="enable-background:new 0 0 406.3 397.9;" xml:space="preserve">
<style type="text/css">
	.st0{fill:#FFFFFF;}
	.st1{font-family:'AvenirNext-Regular';}
	.st2{font-size:117px;}
	.st3{font-family:'AvenirNext-UltraLight';}
</style>
<g>
	<g>
		<path class="st0" d="M484.6,559c-143.8,0-287.7,0-431.5,0c0-191.6,0-383.2,0-574.9c143.8,0,287.7,0,431.5,0
			C484.6,175.8,484.6,367.4,484.6,559z M90.4,315.5L90.4,315.5c-1.9,1.8-3.7,2.9-6.6,2c-1.4-0.4-3.4,0.1-4.8,0.8
			c-1.7,0.8-2.6,2.2-1,4.6c1.1-3.8,3.6-4,6.7-3.5c-1.5,1.9-2.7,3.6-4,5.3c0.3,0.2,0.5,0.4,0.8,0.6c1.4-0.8,2.8-1.7,4.9-3
			c-2,3-3.4,5-4.6,7.1c-0.4,0.7-0.3,1.8-0.4,2.7c0.8-0.3,1.9-0.4,2.5-1c4.2-4.9,8.2-10,12.3-14.9c1.2-1.4,2.4-2.9,3.8-4.6
			c2.9,6.7-4.1,8.1-6.1,12.4c6.4-2.2,9.2-6.5,8.3-12.4c-0.1-0.7-0.2-1.7,0.1-2.2c3-3.4,6-6.8,9.1-10.2c3.6,5.9,0.2,9.2-4.3,12.1
			c6.2-0.6,8.4-4.2,7.1-10.4c-0.3-1.5-0.8-3.7,0-4.6c2.7-3.2,6-5.9,9.4-9.3c1.6,3.4,3,6,4.2,8.8c1.9,4.5,1.8,4.5-2.9,5.2
			c-0.1,0-0.2,0.4-0.6,1.5c2.1-0.2,4.1,0.1,5.1-0.7c1-0.8,1.7-3.1,1.3-4.3c-1.3-3.9-3.2-7.6-5-11.7c2.3-0.9,4.5-1.8,6.8-2.7
			c3.6-1.6,7.2-3.1,10.6-5c1.3-0.7,2.1-2.3,3.2-3.5c-0.3-0.4-0.6-0.7-0.9-1.1c-1.4,0.5-2.8,1-4.1,1.6c-4.3,1.9-8.5,4-12.9,5.5
			c-2,0.7-5.1,0.8-6.6-0.4c-4-3-6-7.1-5.1-12.6c2.1-12.7,9-21.7,20.4-26.9c4.6-2.1,7.3-4.4,6.5-9.6c0-0.1,0.3-0.2,0.6-0.3
			c4.9,7.5,8.2,16.4,17.5,20.6c0.5-4.2-4.6-3-5.1-6.3c0.8-1.2,1.9-2.8,3.3-5c1.7,2.9,2.8,5.4,4.5,7.4c1.5,1.7,3.6,3.4,5.7,4.1
			c2.5,0.8,4.7-1.3,4.5-3.7c-5.4,2.9-6.6,2.5-9.6-2.7c-0.2-0.3-0.3-0.6-0.5-0.9c-4.2-7.3-5.2-7.4-9.7,0c-1.9-2.8-3.8-5.4-5.4-8.2
			c-2.9-5.1-6.6-10-4.9-16.5c0-0.1-0.3-0.2-0.1-0.1c-1.6,0.3-2.9,0.5-4.3,0.8c0,0.6-0.1,1.5,0.2,2.1c1.9,3.5,1.1,7.2,1.2,10.8
			c0.1,2.8-1.1,3.8-3.4,4.9c-11.9,5.4-20.5,13.8-23.9,26.9c0,0.2-0.3,0.3-0.4,0.4c-0.9-0.3-1.7-0.5-2.5-0.8c0.5,2.3,0.9,4.1,1.3,6.2
			c-6-1.7-7.4-0.7-6.9,5c0.3,4.3,1.2,8.6,1.8,12.5c-3-1.6-4.4-1.8-6.2-0.3c-1.9,1.5-3.8,7.2-2.9,9.6c0.2,0.7,1.1,1.1,1.4,1.4
			c0.7-3.1,1-5.9,2-8.5c0.3-0.8,2.4-1.3,3.6-1.1c0.7,0.1,1.8,2.3,1.5,2.9c-2.3,4.4-4.9,8.7-7.5,13.1c-2.9-2.2-5.6-3.2-8.4-1
			c-2.2,1.7-3.8,7.4-2.6,9.9C88.6,315,89.7,315.2,90.4,315.5z M169.6,248c0.4,0.2,0.8,0.5,1.2,0.7c1.1-1.1,2.5-2.1,3.2-3.4
			c4-8.1,9.7-15,15.7-21.8c2.7-3.1,4.9-6.7,7-10.2c15.9-27.1,26.5-56.2,33-86.9c2.2-10.5,5.8-20.7,9.4-30.8c1.7-4.8,5.2-8.9,11-9.2
			c7.6-0.4,14.1,2.4,19.5,7.5c0.9,0.9,1.1,2.6,1.6,3.9c2.1-5.1-2.2-6.6-4.9-9.1c6.5-2.1,6.5-2.1,8.3-0.6c-1.1,0.5-2.3,0.9-3.4,1.4
			c0.1,0.3,0.2,0.6,0.3,0.9c5.6-0.3,11.2-1.2,15.8-4.7c0.8-0.6,1.5-2.5,1.1-3.1c-1.5-2.5-3.4-4.7-5-6.7c4.7-5.3,10.1-10.7,14.7-16.7
			c8.7-11.3,8.5-22.1-0.2-33.2c-2.7-3.5-6-6.8-9.6-9.3C271.8,5.1,253,1.8,233.3,3.6c-10.4,1-19,6.5-24.7,15.2
			c-8.8,13.4-11.7,28.3-8.8,44c2.7,14.5,13.2,22,26.4,26.3c3.9,1.3,7.9,1.8,12.1,2.7c-5.4,9-8.3,18.7-10.8,28.6
			c-6.7,26.7-15.2,52.7-27.6,77.3c-4.8,9.5-9.3,19.1-16.1,27.4c-4.7,5.7-8.6,12-12.6,18.1C170.2,244.7,170.1,246.5,169.6,248z
			 M301.5,203.2c-0.3,0.1-0.6,0.3-0.9,0.4c1.2,1.6,2.1,3.4,3.5,4.6c5.4,4.7,11.2,9,16.5,13.8c4.1,3.7,8.1,7.7,9.5,13.2
			c2.1,8.7,2.7,17.6,0.5,26.3c-3.4,13.1-10.6,24.1-19.9,33.8C299,307.5,285.5,317.7,272,328c-4.3,3.3-8.1,7.4-11.9,11.3
			c-0.8,0.9-0.9,2.5-1.3,3.9c2.5-1,4-2.4,5.8-3.6c18.1-12,34.7-25.8,49.2-41.9c13.3-14.8,22.3-31.6,20.1-52.6
			c-1-8.9-2.8-16.9-10.2-22.9C316.2,216,308.9,209.5,301.5,203.2z M295.5,213.2c0.6,0,1.2-0.1,1.7-0.1c0.3-1.8,0.7-3.6,0.8-5.4
			c0.7-10.6,0.6-21.3,2.2-31.8c2.1-13.7,2.9-27.2-0.4-40.7c-4.1-16.7-14.5-29.6-25.8-41.9c-0.2-0.3-0.7-0.3-1.1-0.4
			c-0.1,1.2,0.3,2,0.9,2.7c1.8,2.1,3.7,4.2,5.5,6.3c17.7,20.5,22.6,44,17.8,70.3c-2.1,11.6-2.2,23.6-3,35.4
			C294,209.5,295,211.3,295.5,213.2z M263.4,205.1c-7.4-7.5-14.4-14.5-21.4-21.6c1.2-0.8,1.8-1.2,2.4-1.6c-3.3-1.6-6.5-3.1-9.9-4.7
			c1-1.8,1.6-2.9,1.8-3.3c5,0.3,9.3,0.6,13.6,0.9c0-0.4,0.1-0.9,0.1-1.3c-4.1-0.5-8.3-1.1-12.2-1.6c5.2-12.9,10.1-25.1,15.1-37.2
			c0.4-0.9,1.5-1.4,1.9-1.7c0.9-2.3,1.7-4.4,2.6-6.5c-0.8,0.1-1.6,0.1-2.4,0.2c0.2-1.3,0.4-2.3,0.6-3.4c-0.5-0.1-0.9-0.2-1.4-0.3
			c-0.6,2.3-0.9,4.8-1.7,7c-3.7,9.4-7.1,18.9-11.5,27.9c-5.1,10.5-11.3,20.4-16.8,30.6c-1.1,2.1-1.7,4.4-2.5,6.7
			c0.5,0.2,1,0.4,1.5,0.7c5.1-4.7,6.8-11.7,10.8-17.3C245.3,185.8,250.3,199.6,263.4,205.1z M261.6,210.7c-0.2-0.1-0.4-0.3-0.6-0.4
			c-0.6,1.1-1.7,2.4-1.6,3.4c0.7,7.2-3.2,9.4-9.5,11.8c-20.5,7.7-40.6,16.5-60.9,25c-0.5,0.2-0.8,0.8-1.3,1.1
			c0.1,0.3,0.3,0.5,0.4,0.8c23.5-8.9,47-17.7,70.6-26.6c3.1,4.6,10,7.8,15.3,6.5c-2.2-1-4.4-1.7-6.7-2.3c-5.6-1.6-7.2-3.6-6.8-9.4
			C260.7,217.2,261.2,214,261.6,210.7z M162.8,253c-6.5,1.9-12.7,4.1-17,9.6c-0.6,0.7-0.6,2.1-0.5,3.1c0.3,2,0.8,3.9,1.5,5.8
			c1.8,5.3,7.2,7.5,12.2,4.8c1.8-1,3.1-0.9,4.9,0.1c3.9,2.2,8,2.6,12.2,0.4c6.7-3.7,10.8-9.3,12.1-16.8c0.2-0.9-0.1-2-0.2-3
			c-0.3,0-0.6,0-0.9,0c-0.2,1-0.5,2.1-0.7,3.1c-1.3,6.5-4.8,11.4-10.6,14.8c-3.4,2-6.9,2-10.3,0.3c-1-0.5-1.7-1.7-2.7-2.9
			c-1.3,0.2-3.2,0.5-5.4,0.8c0.1-1.3,0.1-2.1,0.3-2.9c1-4.8,0.7-5.2-4.2-5.4c-2.1-0.1-4.1-0.3-6.7-0.5
			C151,258.2,157.9,257,162.8,253z M178.9,254.1c9.9-1.6,42.4-44,41.1-53c-1.1,1.9-1.9,3.1-2.5,4.4c-3.9,9.5-9.6,17.7-16.8,24.9
			c-6.2,6.2-12.3,12.4-18.3,18.7C181,250.6,180,252.4,178.9,254.1z M266.3,237.3c0.2-0.3,0.5-0.7,0.7-1c-1.4-0.9-2.7-1.9-4.2-2.7
			c-0.3-0.2-1.3,0.4-1.5,0.8c-1.9,4,0.4,9.5,4.6,11c4.9,1.8,9.9,3.5,14.8,5.2c0.8,0.3,1.6,0.3,2.4,0.5c-0.9-1.4-2-2.3-3.2-2.8
			c-4-1.5-8-2.8-12.1-4.1c-4.9-1.6-5.5-2.7-4.6-8C264.3,236.7,265.3,237,266.3,237.3z M69.1,333.8c0,3.3,2.1,5.7,4.8,5.7
			c2.8,0,5.7-3.7,5.6-7.3c-0.1-2.4-3-4.4-6.4-4.4C70.7,327.8,69.1,330.2,69.1,333.8z M290.9,201.9c-0.1-0.3-0.2-0.7-0.3-1
			c-7.9,0.7-15.4,3.3-22.9,5.8c-0.5,0.2-0.7,1.2-1.2,2C275,206.2,283,204,290.9,201.9z M244.7,178.4c-0.3,4.8,5.4,11.5,9.4,11.4
			C251.1,186.1,247.9,182.3,244.7,178.4z M270,194.5c4.2-0.9,9.2-8.5,8.1-12.4C275.4,186.2,272.6,190.4,270,194.5z M283.6,131.9
			c1.8-4.3,0.7-8.3-1.6-8.6C282.5,126.2,283.1,129.1,283.6,131.9z"/>
		<path d="M169.6,248c0.5-1.6,0.7-3.4,1.5-4.7c4.1-6.1,8-12.4,12.6-18.1c6.8-8.4,11.4-17.9,16.1-27.4c12.4-24.6,20.9-50.6,27.6-77.3
			c2.5-9.9,5.4-19.7,10.8-28.6c-4.2-0.9-8.2-1.5-12.1-2.7c-13.2-4.3-23.7-11.9-26.4-26.3c-3-15.7,0-30.6,8.8-44
			c5.7-8.7,14.4-14.2,24.7-15.2c19.7-1.8,38.5,1.5,55,13.1c3.6,2.5,6.9,5.8,9.6,9.3c8.8,11.1,8.9,21.9,0.2,33.2
			c-4.6,6-10,11.4-14.7,16.7c1.6,2.1,3.5,4.3,5,6.7c0.4,0.6-0.3,2.6-1.1,3.1c-4.7,3.6-10.2,4.5-15.8,4.7c-0.1-0.3-0.2-0.6-0.3-0.9
			c1.1-0.5,2.3-0.9,3.4-1.4c-1.8-1.5-1.8-1.5-8.3,0.6c2.6,2.5,6.9,4,4.9,9.1c-0.5-1.3-0.7-3-1.6-3.9c-5.4-5.2-11.9-7.9-19.5-7.5
			c-5.8,0.3-9.3,4.4-11,9.2c-3.6,10.1-7.2,20.3-9.4,30.8c-6.5,30.7-17.1,59.8-33,86.9c-2.1,3.6-4.3,7.2-7,10.2
			c-6,6.7-11.6,13.6-15.7,21.8c-0.7,1.3-2.1,2.3-3.2,3.4C170.4,248.5,170,248.3,169.6,248z M283.6,79.6c-0.2-0.5-0.4-1-0.5-1.5
			c-2.1,0.7-4.3,1.5-6.4,2.1c-0.5,0.2-1.2,0.1-1.7,0.1c0.1-0.7,0-1.5,0.3-2c0.3-0.5,1-0.8,1.6-1.2c9.7-6.5,17.4-14.8,22.3-25.5
			c2.2-4.7,3.3-9.8,1-15c-3.8-8.5-9.9-14.9-18-19.4c-12.2-6.8-25.6-8.6-39.3-8.8c-18.3-0.3-30.1,8.5-35.2,26
			c-2.7,9.2-4,18.7-2.2,28.2c2.2,11.2,10,17.4,20.2,21c4.9,1.7,10.1,2.8,15.2,4.1c0.5,0.1,1.3-0.1,1.8-0.4c5.7-4.4,12-3.4,17.9-1.1
			c4.4,1.7,7.6-0.4,11.4-1.2c-3.6-7.6-3.2-12.3,1-12.8c-2.1,4.3-1.8,8.3,1.5,12.4C277.6,83.1,280.6,81.4,283.6,79.6z M275.4,86.5
			c1.5,0.5,2.5,1.3,3.2,1.1c2.2-0.6,4.5-1.4,6.5-2.4c0.7-0.4,0.9-1.7,1.4-2.5c-1.1-0.1-2.3-0.6-3.2-0.3
			C280.8,83.4,278.5,84.8,275.4,86.5z"/>
		<path d="M90.4,315.5c-0.7-0.4-1.8-0.6-2.1-1.1c-1.2-2.6,0.4-8.2,2.6-9.9c2.8-2.2,5.4-1.3,8.4,1c2.6-4.5,5.2-8.7,7.5-13.1
			c0.3-0.6-0.8-2.8-1.5-2.9c-1.1-0.2-3.3,0.3-3.6,1.1c-1,2.6-1.3,5.4-2,8.5c-0.3-0.2-1.1-0.7-1.4-1.4c-0.8-2.4,1-8.1,2.9-9.6
			c1.8-1.5,3.2-1.3,6.2,0.3c-0.6-3.9-1.5-8.2-1.8-12.5c-0.4-5.7,0.9-6.7,6.9-5c-0.5-2.1-0.8-4-1.3-6.2c0.9,0.3,1.7,0.5,2.5,0.8
			c0.1-0.1,0.3-0.2,0.4-0.4c3.4-13.1,12-21.5,23.9-26.9c2.3-1.1,3.5-2.1,3.4-4.9c-0.1-3.7,0.7-7.4-1.2-10.8
			c-0.3-0.6-0.1-1.5-0.2-2.1c1.4-0.3,2.7-0.5,4.3-0.8c-0.2-0.2,0.1,0,0.1,0.1c-1.6,6.5,2,11.4,4.9,16.5c1.6,2.8,3.5,5.4,5.4,8.2
			c4.5-7.4,5.5-7.3,9.7,0c0.2,0.3,0.3,0.6,0.5,0.9c3,5.2,4.2,5.5,9.6,2.7c0.1,2.4-2,4.6-4.5,3.7c-2.1-0.7-4.2-2.4-5.7-4.1
			c-1.7-2-2.8-4.5-4.5-7.4c-1.4,2.1-2.5,3.7-3.3,5c0.5,3.3,5.6,2.2,5.1,6.3c-9.3-4.2-12.6-13.1-17.5-20.6c-0.3,0.1-0.6,0.3-0.6,0.3
			c0.8,5.2-1.9,7.6-6.5,9.6c-11.4,5.3-18.3,14.3-20.4,26.9c-0.9,5.5,1.1,9.6,5.1,12.6c1.5,1.1,4.6,1,6.6,0.4
			c4.4-1.5,8.6-3.7,12.9-5.5c1.4-0.6,2.8-1.1,4.1-1.6c0.3,0.4,0.6,0.7,0.9,1.1c-1,1.2-1.9,2.8-3.2,3.5c-3.4,1.9-7,3.4-10.6,5
			c-2.2,1-4.5,1.8-6.8,2.7c1.8,4.1,3.7,7.8,5,11.7c0.4,1.2-0.3,3.5-1.3,4.3c-1,0.8-3,0.5-5.1,0.7c0.5-1.1,0.5-1.5,0.6-1.5
			c4.7-0.7,4.8-0.7,2.9-5.2c-1.2-2.8-2.6-5.4-4.2-8.8c-3.5,3.4-6.7,6.1-9.4,9.3c-0.8,0.9-0.3,3.1,0,4.6c1.3,6.2-0.9,9.9-7.1,10.4
			c4.5-2.9,7.9-6.2,4.3-12.1c-3.1,3.4-6.2,6.8-9.1,10.2c-0.4,0.4-0.3,1.4-0.1,2.2c0.9,5.8-1.9,10.2-8.3,12.4c2-4.3,9-5.7,6.1-12.4
			c-1.4,1.7-2.6,3.1-3.8,4.6c-4.1,5-8.1,10-12.3,14.9c-0.5,0.6-1.6,0.7-2.5,1c0.1-0.9,0-1.9,0.4-2.7c1.2-2.1,2.7-4.1,4.6-7.1
			c-2.2,1.3-3.6,2.2-4.9,3c-0.3-0.2-0.5-0.4-0.8-0.6c1.3-1.7,2.5-3.3,4-5.3c-3.1-0.5-5.6-0.3-6.7,3.5c-1.6-2.4-0.7-3.9,1-4.6
			c1.5-0.6,3.4-1.2,4.8-0.8C86.7,318.4,88.5,317.3,90.4,315.5c2.1-2.3,4.3-4.4,6.4-6.7c1.7-1.9,0.4-3.1-1.4-3.6
			c-2.2-0.6-4,0.4-4.5,2.5C90.3,310.2,90.5,312.9,90.4,315.5z M122.7,285.6c-3.1-2.7-5.9-5.2-8.7-7.5c-0.9,3.1-1.7,6.7-3.1,10.1
			c-1,2.6-0.6,4.4,1.5,6.4C115.8,291.6,119.2,288.7,122.7,285.6z M108.7,285.9c0.5,0,1,0,1.4,0.1c0.7-3.8,1.7-7.5,2-11.3
			c0.1-0.9-2.1-2-3.2-3c-0.5,1-1.4,2-1.3,2.9C107.8,278.4,108.3,282.2,108.7,285.9z M105.7,301.1c5.3-4.2,5.5-4.7,3.3-7.3
			c-1,2-2,4-3,5.9C105.8,300,105.8,300.5,105.7,301.1z"/>
		<path d="M301.5,203.2c7.4,6.3,14.7,12.8,22.3,18.9c7.4,6,9.2,14,10.2,22.9c2.3,21.1-6.7,37.8-20.1,52.6
			c-14.5,16.1-31.1,30-49.2,41.9c-1.7,1.2-3.3,2.6-5.8,3.6c0.4-1.3,0.4-3,1.3-3.9c3.8-3.9,7.6-8,11.9-11.3
			c13.4-10.3,27-20.5,38.7-32.7c9.3-9.7,16.5-20.7,19.9-33.8c2.3-8.7,1.7-17.6-0.5-26.3c-1.4-5.5-5.4-9.5-9.5-13.2
			c-5.4-4.8-11.1-9.1-16.5-13.8c-1.4-1.2-2.4-3.1-3.5-4.6C300.9,203.5,301.2,203.3,301.5,203.2z"/>
		<path d="M295.5,213.2c-0.5-1.8-1.4-3.7-1.3-5.5c0.8-11.8,0.9-23.8,3-35.4c4.7-26.4-0.1-49.9-17.8-70.3c-1.8-2.1-3.7-4.2-5.5-6.3
			c-0.6-0.7-1-1.4-0.9-2.7c0.4,0.1,0.9,0.1,1.1,0.4c11.3,12.3,21.7,25.2,25.8,41.9c3.3,13.5,2.5,27,0.4,40.7
			c-1.6,10.5-1.5,21.2-2.2,31.8c-0.1,1.8-0.5,3.6-0.8,5.4C296.7,213.1,296.1,213.1,295.5,213.2z"/>
		<path d="M263.4,205.1c-13.1-5.5-18.1-19.4-29.3-26.5c-4,5.7-5.7,12.6-10.8,17.3c-0.5-0.2-1-0.4-1.5-0.7c0.8-2.2,1.3-4.6,2.5-6.7
			c5.6-10.2,11.7-20.2,16.8-30.6c4.4-9,7.8-18.6,11.5-27.9c0.9-2.2,1.2-4.7,1.7-7c0.5,0.1,0.9,0.2,1.4,0.3c-0.2,1-0.4,2-0.6,3.4
			c0.8-0.1,1.7-0.1,2.4-0.2c-0.9,2.2-1.7,4.2-2.6,6.5c-0.4,0.3-1.6,0.9-1.9,1.7c-5,12.1-9.9,24.3-15.1,37.2c3.9,0.5,8,1,12.2,1.6
			c0,0.4-0.1,0.9-0.1,1.3c-4.3-0.3-8.6-0.6-13.6-0.9c-0.2,0.4-0.8,1.5-1.8,3.3c3.4,1.6,6.6,3.1,9.9,4.7c-0.6,0.4-1.2,0.8-2.4,1.6
			C249,190.6,256,197.7,263.4,205.1z"/>
		<path d="M261.6,210.7c-0.4,3.3-0.9,6.5-1.1,9.8c-0.4,5.8,1.2,7.8,6.8,9.4c2.3,0.6,4.5,1.3,6.7,2.3c-5.3,1.3-12.2-1.9-15.3-6.5
			c-23.6,8.9-47.1,17.8-70.6,26.6c-0.1-0.3-0.3-0.5-0.4-0.8c0.4-0.4,0.8-0.9,1.3-1.1c20.3-8.4,40.4-17.3,60.9-25
			c6.3-2.4,10.2-4.6,9.5-11.8c-0.1-1.1,1-2.3,1.6-3.4C261.2,210.4,261.4,210.5,261.6,210.7z"/>
		<path d="M162.8,253c-4.9,4-11.8,5.2-16,11.4c2.6,0.2,4.6,0.5,6.7,0.5c4.8,0.1,5.2,0.6,4.2,5.4c-0.2,0.7-0.2,1.5-0.3,2.9
			c2.2-0.3,4.1-0.6,5.4-0.8c1,1.1,1.7,2.4,2.7,2.9c3.4,1.7,6.9,1.7,10.3-0.3c5.7-3.4,9.3-8.3,10.6-14.8c0.2-1,0.5-2.1,0.7-3.1
			c0.3,0,0.6,0,0.9,0c0.1,1,0.4,2,0.2,3c-1.3,7.5-5.4,13.1-12.1,16.8c-4.1,2.3-8.2,1.8-12.2-0.4c-1.7-1-3-1.1-4.9-0.1
			c-4.9,2.8-10.3,0.6-12.2-4.8c-0.7-1.9-1.2-3.9-1.5-5.8c-0.2-1-0.1-2.4,0.5-3.1C150.1,257.1,156.3,254.9,162.8,253z M147.8,266.6
			c0.7,7.2,3.4,9.8,8.2,8.9c0-2.8,0-5.6,0-8.4C153.3,266.9,150.5,266.7,147.8,266.6z"/>
		<path d="M178.9,254.1c1.2-1.7,2.1-3.5,3.5-4.9c6-6.3,12.2-12.5,18.3-18.7c7.2-7.2,12.9-15.4,16.8-24.9c0.5-1.3,1.4-2.5,2.5-4.4
			C221.2,210.1,188.7,252.5,178.9,254.1z"/>
		<path d="M266.3,237.3c-1-0.3-2-0.7-3-1c-0.9,5.3-0.3,6.4,4.6,8c4,1.3,8.1,2.6,12.1,4.1c1.3,0.5,2.4,1.4,3.2,2.8
			c-0.8-0.1-1.7-0.2-2.4-0.5c-5-1.7-9.9-3.4-14.8-5.2c-4.2-1.5-6.5-7-4.6-11c0.2-0.4,1.2-1,1.5-0.8c1.5,0.8,2.8,1.8,4.2,2.7
			C266.7,236.7,266.5,237,266.3,237.3z"/>
		<path d="M69.1,333.8c0-3.6,1.6-6,4-6c3.4,0,6.4,2,6.4,4.4c0.1,3.6-2.7,7.3-5.6,7.3C71.2,339.5,69.2,337.1,69.1,333.8z M69.8,333.8
			c1.7,1.6,2.7,3.2,4.2,3.7c0.7,0.2,2.7-1.6,3-2.8c0.5-1.9-2.3-5.4-3.7-4.8C72,330.4,71.3,332,69.8,333.8z"/>
		<path d="M290.9,201.9c-7.9,2.2-15.9,4.4-24.3,6.7c0.5-0.8,0.7-1.8,1.2-2c7.5-2.5,15-5.1,22.9-5.8
			C290.7,201.2,290.8,201.5,290.9,201.9z"/>
		<path d="M244.7,178.4c3.2,3.9,6.4,7.7,9.4,11.4C250,189.8,244.3,183.2,244.7,178.4z"/>
		<path d="M270,194.5c2.7-4.1,5.4-8.2,8.1-12.4C279.2,186,274.2,193.6,270,194.5z"/>
		<path d="M283.6,131.9c-0.5-2.8-1.1-5.7-1.6-8.6C284.4,123.6,285.4,127.7,283.6,131.9z"/>
		<path class="st0" d="M283.6,79.6c-3,1.7-6,3.5-9.1,5.3c-3.3-4.1-3.6-8.1-1.5-12.4c-4.3,0.4-4.6,5.2-1,12.8
			c-3.8,0.7-7,2.9-11.4,1.2c-5.9-2.3-12.2-3.4-17.9,1.1c-0.4,0.3-1.3,0.5-1.8,0.4c-5.1-1.3-10.3-2.3-15.2-4.1
			c-10.1-3.6-18-9.8-20.2-21c-1.8-9.5-0.5-19,2.2-28.2c5.1-17.5,16.9-26.4,35.2-26c13.6,0.3,27.1,2.1,39.3,8.8
			c8,4.5,14.1,10.9,18,19.4c2.3,5.1,1.2,10.2-1,15c-4.9,10.6-12.6,19-22.3,25.5c-0.6,0.4-1.3,0.6-1.6,1.2c-0.3,0.5-0.2,1.3-0.3,2
			c0.6,0,1.2,0,1.7-0.1c2.1-0.7,4.3-1.4,6.4-2.1C283.3,78.6,283.4,79.1,283.6,79.6z M269.5,63.3c0.4,0.9,0.7,1.8,1.1,2.7
			c0.5,1,1,2.9,1.5,2.9c1.1,0.1,2.5-0.6,3.5-1.4c1.5-1.1,2.7-3,4.3-3.6c6.9-2.5,8.9-15.5,5.8-21.2c-1-1.8-3.6-2.1-4.9-0.5
			c-2.3,2.8-4.7,5.6-6.8,8.5c-0.6,0.8-0.6,2.2-0.7,3.3c0,0.6,0.6,1.4,0.4,1.8C272.6,58.3,271.1,60.7,269.5,63.3z M238.9,81.6
			c8.7-0.4,24.7-8.6,25.1-12.6c-7.8,3.5-15.7,7.1-23.6,10.7C240,80,239.7,80.7,238.9,81.6z M235.1,31.8c-2.1,0-2.8,0.2-3.8,2.8
			c-1.3,3.4-4,7.2-1.4,10.3c2,2.5,5.9,3.5,8.9,5.1c0.3-0.5,0.5-1,0.8-1.5c-2-1.3-3.8-2.8-5.9-3.8c-2.1-0.9-2.6-2.3-2-4.2
			C232.8,37.7,234,34.9,235.1,31.8z M238,79.8c0.3-0.2,0.6-0.5,0.9-0.7c-1.2-1.6-2.5-3.3-3.9-5.2c2.6-0.9,5.9,1.9,7.1-2.4
			c-2.7,0.5-5.1,0.8-7.4,1.3c-0.4,0.1-0.9,0.9-0.8,1.2C234.7,76.3,235.4,78.9,238,79.8z"/>
		<path class="st0" d="M275.4,86.5c3.2-1.7,5.4-3.1,7.9-4.1c0.9-0.4,2.1,0.1,3.2,0.3c-0.4,0.9-0.7,2.2-1.4,2.5
			c-2.1,1-4.3,1.8-6.5,2.4C277.9,87.8,276.9,87.1,275.4,86.5z"/>
		<path class="st0" d="M122.7,285.6c-3.6,3.1-6.9,6-10.2,8.9c-2.1-2-2.5-3.8-1.5-6.4c1.3-3.4,2.1-6.9,3.1-10.1
			C116.8,280.5,119.6,283,122.7,285.6z"/>
		<path class="st0" d="M108.7,285.9c-0.4-3.8-0.9-7.6-1.1-11.3c0-0.9,0.9-1.9,1.3-2.9c1.1,1,3.3,2.1,3.2,3c-0.3,3.8-1.3,7.5-2,11.3
			C109.7,286,109.2,286,108.7,285.9z"/>
		<path class="st0" d="M90.4,315.5c0.1-2.6,0-5.3,0.5-7.9c0.4-2.1,2.3-3.1,4.5-2.5c1.9,0.5,3.2,1.6,1.4,3.6
			C94.7,311.1,92.4,313.2,90.4,315.5C90.3,315.4,90.4,315.5,90.4,315.5z"/>
		<path class="st0" d="M105.7,301.1c0.1-0.6,0.2-1.1,0.3-1.4c1-2,2-3.9,3-5.9C111.1,296.4,110.9,296.9,105.7,301.1z"/>
		<path class="st0" d="M147.8,266.6c2.8,0.2,5.5,0.3,8.2,0.5c0,2.9,0,5.6,0,8.4C151.1,276.3,148.5,273.7,147.8,266.6z"/>
		<path class="st0" d="M69.8,333.8c1.5-1.8,2.2-3.4,3.5-4c1.4-0.6,4.2,2.9,3.7,4.8c-0.3,1.2-2.3,3-3,2.8
			C72.5,337,71.5,335.4,69.8,333.8z"/>
		<path d="M269.5,63.3c1.5-2.6,3-5,4.3-7.5c0.2-0.4-0.5-1.2-0.4-1.8c0.1-1.1,0.1-2.4,0.7-3.3c2.1-2.9,4.5-5.7,6.8-8.5
			c1.3-1.6,3.9-1.3,4.9,0.5C289,48.4,287,61.5,280,64c-1.6,0.6-2.8,2.5-4.3,3.6c-1,0.7-2.4,1.5-3.5,1.4c-0.6,0-1-1.9-1.5-2.9
			C270.3,65.1,269.9,64.2,269.5,63.3z"/>
		<path d="M238.9,81.6c0.8-0.9,1.1-1.6,1.6-1.8c7.9-3.6,15.8-7.2,23.6-10.7C263.6,72.9,247.6,81.2,238.9,81.6z"/>
		<path d="M235.1,31.8c-1.2,3-2.3,5.9-3.3,8.8c-0.7,1.9-0.1,3.3,2,4.2c2.1,0.9,4,2.5,5.9,3.8c-0.3,0.5-0.5,1-0.8,1.5
			c-3-1.7-6.9-2.6-8.9-5.1c-2.6-3.2,0.1-7,1.4-10.3C232.3,32,233,31.8,235.1,31.8z"/>
		<path d="M238,79.8c-2.6-1-3.3-3.5-4.1-5.8c-0.1-0.3,0.5-1.1,0.8-1.2c2.3-0.5,4.7-0.9,7.4-1.3c-1.2,4.3-4.5,1.6-7.1,2.4
			c1.4,1.9,2.7,3.5,3.9,5.2C238.6,79.3,238.3,79.6,238,79.8z"/>
	</g>
</g>
<text transform="matrix(1 0 0 1 -4 386.89)" class="st1 st2">Bellucci</text>
<text transform="matrix(1 0 0 1 2 389.89)" class="st0 st3 st2">Bellucci</text>
</svg>
